<?xml version="1.0" encoding="UTF-8"?>
<svg version="1.1" xmlns="http://www.w3.org/2000/svg" width="256" height="256">
<path d="M0 0 C84.48 0 168.96 0 256 0 C256 84.48 256 168.96 256 256 C171.52 256 87.04 256 0 256 C0 171.52 0 87.04 0 0 Z " fill="#512BD4" transform="translate(0,0)"/>
<path d="M0 0 C4.29 0 8.58 0 13 0 C16.38336596 3.75467197 18.28475304 6.45488556 20.5625 10.8125 C21.81930038 13.01620253 23.07712688 15.21932015 24.3359375 17.421875 C24.94663086 18.52853516 25.55732422 19.63519531 26.18652344 20.77539062 C28.83814107 25.49032946 31.75235183 30.02078298 34.6875 34.5625 C35.63162144 36.0412387 36.57319342 37.5216095 37.51171875 39.00390625 C37.89803467 39.61049072 38.28435059 40.2170752 38.68237305 40.84204102 C40.52192471 43.85478831 42.24865087 46.93513902 44 50 C44.33 33.5 44.66 17 45 0 C48.3 0 51.6 0 55 0 C55 22.11 55 44.22 55 67 C51.04 67 47.08 67 43 67 C40.18389781 64.11732329 38.88520876 62.33660792 37.125 58.875 C36.13762653 57.13286027 35.1479445 55.39202741 34.15625 53.65234375 C33.64964844 52.73179199 33.14304688 51.81124023 32.62109375 50.86279297 C29.82569677 45.92622293 26.70784834 41.19774449 23.625 36.4375 C22.48963576 34.66699833 21.3567388 32.89491156 20.2265625 31.12109375 C19.74783691 30.3727124 19.26911133 29.62433105 18.77587891 28.85327148 C16.12988656 24.60200499 13.57631109 20.29385182 11 16 C10.67 32.5 10.34 49 10 66 C6.7 66 3.4 66 0 66 C0 44.22 0 22.44 0 0 Z " fill="#FDFCFE" transform="translate(63,96)"/>
<path d="M0 0 C11.55 0 23.1 0 35 0 C35 2.97 35 5.94 35 9 C27.08 9 19.16 9 11 9 C11 15.27 11 21.54 11 28 C18.26 28 25.52 28 33 28 C33 30.97 33 33.94 33 37 C25.74 37 18.48 37 11 37 C11 43.6 11 50.2 11 57 C19.58 57 28.16 57 37 57 C37 60.3 37 63.6 37 67 C24.79 67 12.58 67 0 67 C0 44.89 0 22.78 0 0 Z " fill="#F9F8FD" transform="translate(132,96)"/>
<path d="M0 0 C15.51 0 31.02 0 47 0 C47 2.97 47 5.94 47 9 C41.06 9 35.12 9 29 9 C29 28.14 29 47.28 29 67 C25.37 67 21.74 67 18 67 C18 47.86 18 28.72 18 9 C12.06 9 6.12 9 0 9 C0 6.03 0 3.06 0 0 Z " fill="#FCFBFE" transform="translate(173,96)"/>
<path d="M0 0 C3.4375 0.75 3.4375 0.75 5.4375 2.75 C5.7642107 5.82108055 5.91888276 7.90050101 4.375 10.625 C1.3305714 12.39273274 -1.1256012 12.11823916 -4.5625 11.75 C-6.5625 10.6875 -6.5625 10.6875 -7.5625 8.75 C-7.4375 5.1875 -7.4375 5.1875 -6.5625 1.75 C-3.5625 -0.25 -3.5625 -0.25 0 0 Z " fill="#F8F6FD" transform="translate(46.5625,151.25)"/>
</svg>
