<?xml version="1.0" encoding="UTF-8"?>
<svg version="1.1" xmlns="http://www.w3.org/2000/svg" width="286" height="275">
<path d="M0 0 C10.59598888 3.86423907 19.22538112 11.13411974 28 18 C29.46295941 19.13356434 30.92650821 20.26636842 32.390625 21.3984375 C37.73053428 25.53425531 43.05200007 29.69355575 48.37158203 33.85546875 C52.91115489 37.40599345 57.45769544 40.94700487 62.02001953 44.46826172 C63.27930302 45.44245958 64.53581639 46.42025675 65.78857422 47.40283203 C67.3080504 48.59306582 68.84096406 49.76609141 70.375 50.9375 C71.18710938 51.56527344 71.99921875 52.19304687 72.8359375 52.83984375 C74.88211498 54.21416101 74.88211498 54.21416101 76.93164062 53.71191406 C80.45097809 52.50058403 83.20914257 50.06499897 86.125 47.8125 C86.82149658 47.28221191 87.51799316 46.75192383 88.2355957 46.20556641 C90.49707231 44.47887639 92.74974543 42.74128547 95 41 C96.13719482 40.12045654 96.13719482 40.12045654 97.29736328 39.22314453 C101.11848135 36.26342052 104.93260269 33.29486336 108.7421875 30.3203125 C113.44511885 26.64896485 118.17082274 23.00820467 122.90625 19.37890625 C125.07996163 17.70745375 127.24637283 16.02893137 129.40625 14.33984375 C150.1554291 -1.84966111 150.1554291 -1.84966111 160.015625 -1.41015625 C164.41360941 -0.50112404 167.57206368 2.12722371 170.25390625 5.64453125 C182.11879591 25.03990438 177.17297732 57.24338309 177.20018864 79.00242639 C177.20316009 81.26500379 177.20727075 83.52757659 177.21169281 85.7901516 C177.2252649 92.90265569 177.23499038 100.01514876 177.2388947 107.12766486 C177.24339991 115.28214941 177.26110399 123.43646841 177.2898953 131.59090263 C177.31153981 137.94472853 177.32159987 144.29850779 177.32293582 150.65237015 C177.32397857 154.42785653 177.32977708 158.20318501 177.34775543 161.97863197 C177.36429263 165.51739988 177.36636462 169.05589169 177.35761642 172.5946846 C177.35648686 174.49763764 177.3701457 176.40058183 177.3843689 178.30348206 C177.35135514 185.12150868 176.64153009 190.70255942 174 197 C173.68417969 197.88171875 173.36835938 198.7634375 173.04296875 199.671875 C170.87990261 204.92644663 168.71621903 207.78895726 164 211 C159.31668565 212.56110478 155.45547758 212.50164519 150.78125 210.890625 C141.81270653 206.40635326 134.4083114 200.85296249 126.73583984 194.4296875 C124.28210981 192.40872504 121.74329609 190.51452649 119.1875 188.625 C114.17409753 184.90191023 109.23654524 181.09038919 104.3125 177.25 C103.55461182 176.66162354 102.79672363 176.07324707 102.01586914 175.46704102 C98.05937944 172.39449675 94.12086006 169.30252492 90.20703125 166.17578125 C88.67983409 164.9711683 87.15249559 163.76673451 85.625 162.5625 C84.91770752 161.98854492 84.21041504 161.41458984 83.48168945 160.82324219 C82.81999756 160.30536133 82.15830566 159.78748047 81.4765625 159.25390625 C80.611521 158.56276733 80.611521 158.56276733 79.72900391 157.85766602 C78.01884162 156.81667097 78.01884162 156.81667097 75.99511719 157.21313477 C73.90421021 158.03777906 72.38634458 158.97412362 70.6015625 160.3359375 C69.96476562 160.81740234 69.32796875 161.29886719 68.671875 161.79492188 C67.99640625 162.31634766 67.3209375 162.83777344 66.625 163.375 C65.91601562 163.91447266 65.20703125 164.45394531 64.4765625 165.00976562 C59.37090185 168.9073905 54.31866345 172.87252819 49.28271484 176.85961914 C44.33999369 180.76304801 39.31182833 184.54454826 34.25097656 188.29321289 C30.57699445 191.02574812 26.96503039 193.81389661 23.40625 196.6953125 C4.81837523 211.69212665 4.81837523 211.69212665 -6.3125 212.625 C-11.05349372 211.82144174 -13.84940659 210.67952515 -17 207 C-23.50000246 195.44444006 -23.1691241 183.30625589 -23.31640625 170.43359375 C-23.33734986 168.87080519 -23.35857751 167.30802042 -23.38006592 165.74523926 C-23.44817086 160.64273708 -23.50591717 155.54014103 -23.5625 150.4375 C-23.57734751 149.13040007 -23.57734751 149.13040007 -23.59249496 147.79689407 C-23.72906327 135.77050406 -23.84588395 123.74399809 -23.94995117 111.71728516 C-23.98287001 107.91355593 -24.01758438 104.10985011 -24.05395508 100.30615234 C-24.15877303 89.26487161 -24.23916634 78.22384206 -24.28610229 67.18215942 C-24.30154491 63.70813445 -24.32626745 60.23437008 -24.35916138 56.76046753 C-24.39746356 52.65585266 -24.41561652 48.55161068 -24.41901398 44.44682312 C-24.42341912 42.95323519 -24.43451049 41.45964711 -24.45333099 39.96617126 C-24.60040335 27.71710053 -23.48660551 14.20900752 -16 4 C-10.59451529 -0.89067664 -7.11534823 -1.6251747 0 0 Z " fill="#EE3D23" transform="translate(66,32)"/>
<path d="M0 0 C10.59598888 3.86423907 19.22538112 11.13411974 28 18 C29.46295941 19.13356434 30.92650821 20.26636842 32.390625 21.3984375 C36.16246272 24.31944756 39.92374856 27.25373552 43.68261719 30.19140625 C46.83860929 32.65448985 50.00191996 35.10809174 53.16503906 37.56201172 C56.13000395 39.86416869 59.09032239 42.17224664 62.04980469 44.48144531 C63.81327069 45.85459986 65.58175942 47.22097011 67.3515625 48.5859375 C68.72441406 49.65714844 68.72441406 49.65714844 70.125 50.75 C70.89070313 51.34296875 71.65640625 51.9359375 72.4453125 52.546875 C73.21488281 53.26617187 73.21488281 53.26617187 74 54 C74 54.66 74 55.32 74 56 C74.66 56.20625 75.32 56.4125 76 56.625 C80.13386133 58.51968644 83.43701642 61.19991314 87 64 C88.51944538 65.18110006 90.03897753 66.3620885 91.55859375 67.54296875 C92.30866699 68.12868652 93.05874023 68.7144043 93.83154297 69.31787109 C95.78204278 70.83092488 97.74624329 72.32183644 99.72265625 73.80078125 C117.19432001 86.90328002 117.19432001 86.90328002 120 94 C120.33 97.63 120.66 101.26 121 105 C91.3 105 61.6 105 31 105 C32.08630172 115.86301716 34.48638785 122.93993139 43 130 C44.67339883 130.93324165 46.34803162 131.86472645 48.0390625 132.765625 C51.29429206 134.81473365 53.9946861 137.46973187 56.7890625 140.09765625 C59.06383263 142.05492313 61.432476 143.4603386 64 145 C65.33333333 146.66666667 66.66666667 148.33333333 68 150 C69.3303125 150.7425 69.3303125 150.7425 70.6875 151.5 C73 153 73 153 73.64453125 155.59375 C73.76183594 156.3878125 73.87914062 157.181875 74 158 C73.00742188 158.73863281 72.01484375 159.47726563 70.9921875 160.23828125 C64.26984136 165.25336488 57.57390223 170.29128513 51 175.5 C45.48951328 179.8644936 39.89963607 184.10914841 34.25097656 188.29321289 C30.57699445 191.02574812 26.96503039 193.81389661 23.40625 196.6953125 C4.81837523 211.69212665 4.81837523 211.69212665 -6.3125 212.625 C-11.05349372 211.82144174 -13.84940659 210.67952515 -17 207 C-23.50000246 195.44444006 -23.1691241 183.30625589 -23.31640625 170.43359375 C-23.33734986 168.87080519 -23.35857751 167.30802042 -23.38006592 165.74523926 C-23.44817086 160.64273708 -23.50591717 155.54014103 -23.5625 150.4375 C-23.57734751 149.13040007 -23.57734751 149.13040007 -23.59249496 147.79689407 C-23.72906327 135.77050406 -23.84588395 123.74399809 -23.94995117 111.71728516 C-23.98287001 107.91355593 -24.01758438 104.10985011 -24.05395508 100.30615234 C-24.15877303 89.26487161 -24.23916634 78.22384206 -24.28610229 67.18215942 C-24.30154491 63.70813445 -24.32626745 60.23437008 -24.35916138 56.76046753 C-24.39746356 52.65585266 -24.41561652 48.55161068 -24.41901398 44.44682312 C-24.42341912 42.95323519 -24.43451049 41.45964711 -24.45333099 39.96617126 C-24.60040335 27.71710053 -23.48660551 14.20900752 -16 4 C-10.59451529 -0.89067664 -7.11534823 -1.6251747 0 0 Z " fill="#0A2F4C" transform="translate(66,32)"/>
<path d="M0 0 C6.65042101 4.3057213 9.37030179 10.50157484 11.078125 18.12109375 C13.90601578 38.28750154 13.24175158 58.93967263 13.24538207 79.2552464 C13.24610194 81.52583314 13.24825306 83.79641415 13.25087929 86.06699944 C13.260051 94.00910694 13.26422276 101.95119792 13.26342773 109.89331055 C13.26282248 117.27136779 13.27348209 124.649353 13.2891714 132.02739197 C13.30223885 138.40153741 13.30761228 144.77565915 13.30697232 151.14981788 C13.306718 154.94078672 13.30953595 158.73169061 13.32015038 162.52264595 C13.32982307 166.07120799 13.3299164 169.61964256 13.32263374 173.16820908 C13.32109046 175.08623116 13.32943188 177.00425324 13.33807373 178.92225647 C13.33387924 180.06690369 13.32968475 181.2115509 13.32536316 182.3908844 C13.32590793 183.38273522 13.32645269 184.37458605 13.32701397 185.39649296 C13.06146632 188.30345726 12.29200871 190.48031616 11.078125 193.12109375 C10.748125 193.12109375 10.418125 193.12109375 10.078125 193.12109375 C10.078125 164.41109375 10.078125 135.70109375 10.078125 106.12109375 C-6.751875 106.12109375 -23.581875 106.12109375 -40.921875 106.12109375 C-41.581875 103.81109375 -42.241875 101.50109375 -42.921875 99.12109375 C-47.54373177 86.9817591 -56.73802107 79.9218104 -66.99804688 72.51806641 C-69.29138448 70.85277735 -71.5676859 69.16538123 -73.84375 67.4765625 C-75.57801236 66.19125425 -77.31238749 64.90609815 -79.046875 63.62109375 C-79.88911621 62.9969458 -80.73135742 62.37279785 -81.59912109 61.72973633 C-82.78368896 60.8561145 -82.78368896 60.8561145 -83.9921875 59.96484375 C-85.05590576 59.17883789 -85.05590576 59.17883789 -86.14111328 58.37695312 C-87.90159866 57.06872519 -87.90159866 57.06872519 -89.921875 56.12109375 C-89.591875 55.46109375 -89.261875 54.80109375 -88.921875 54.12109375 C-87.59212918 53.77372516 -86.25821741 53.44215116 -84.921875 53.12109375 C-82.47702269 51.44722004 -80.13807455 49.74216969 -77.796875 47.93359375 C-76.75213013 47.13816162 -76.75213013 47.13816162 -75.6862793 46.32666016 C-73.42480269 44.59997014 -71.17212957 42.86237922 -68.921875 41.12109375 C-68.16374512 40.53473145 -67.40561523 39.94836914 -66.62451172 39.34423828 C-62.80339365 36.38451427 -58.98927231 33.41595711 -55.1796875 30.44140625 C-50.47675615 26.7700586 -45.75105226 23.12929842 -41.015625 19.5 C-38.84191337 17.8285475 -36.67550217 16.15002512 -34.515625 14.4609375 C-10.07608359 -4.60796506 -10.07608359 -4.60796506 0 0 Z " fill="#F6A11E" transform="translate(229.921875,31.87890625)"/>
<path d="M0 0 C18.15 0.33 36.3 0.66 55 1 C55.495 5.95 55.495 5.95 56 11 C59.27309971 18.92380151 64.50641278 24.75259764 72.0390625 28.765625 C75.29429206 30.81473365 77.9946861 33.46973187 80.7890625 36.09765625 C83.06383263 38.05492313 85.432476 39.4603386 88 41 C89.33333333 42.66666667 90.66666667 44.33333333 92 46 C92.886875 46.495 93.77375 46.99 94.6875 47.5 C97 49 97 49 97.64453125 51.59375 C97.76183594 52.3878125 97.87914062 53.181875 98 54 C97.00742188 54.73863281 96.01484375 55.47726563 94.9921875 56.23828125 C88.26984136 61.25336488 81.57390223 66.29128513 75 71.5 C69.48951328 75.8644936 63.89963607 80.10914841 58.25097656 84.29321289 C54.57699445 87.02574812 50.96503039 89.81389661 47.40625 92.6953125 C28.81837523 107.69212665 28.81837523 107.69212665 17.6875 108.625 C12.94650628 107.82144174 10.15059341 106.67952515 7 103 C1.6645856 93.51481884 0.87811557 84.09768295 0.79467773 73.45092773 C0.78477814 72.64982071 0.77487854 71.84871368 0.76467896 71.02333069 C0.73342413 68.41011374 0.70845113 65.79687869 0.68359375 63.18359375 C0.662993 61.35799218 0.64199577 59.53239504 0.62062073 57.70680237 C0.56572211 52.92788306 0.51617231 48.14892304 0.46777344 43.36993408 C0.40843367 37.62199248 0.3423849 31.87412445 0.27747345 26.12624359 C0.17986989 17.41754109 0.09073666 8.70878895 0 0 Z " fill="#039D9D" transform="translate(42,136)"/>
<path d="M0 0 C2 3 2 3 3 9 C19.83 9.33 36.66 9.66 54 10 C54.16043524 32.34951987 54.16043524 32.34951987 54.1953125 41.90820312 C54.2191835 48.41948557 54.24736177 54.93054207 54.30175781 61.44165039 C54.34535798 66.69363945 54.36916715 71.94538606 54.37950897 77.19754219 C54.38687492 79.19693376 54.4012588 81.19631271 54.42292023 83.19560051 C54.4521426 86.00560607 54.45594816 88.81462175 54.45410156 91.62475586 C54.46848267 92.44331558 54.48286377 93.26187531 54.49768066 94.10523987 C54.4560863 99.9908418 53.15688181 104.9729471 50 110 C49.01 110.66 48.02 111.32 47 112 C47.33 110.35 47.66 108.7 48 107 C48.99 106.67 49.98 106.34 51 106 C52.1438453 95.62392647 52.1296752 85.31214485 52.09765625 74.890625 C52.09618231 73.27457717 52.09516439 71.65852887 52.09460449 70.04248047 C52.08940398 64.11164627 52.07544289 58.18082236 52.0625 52.25 C52.041875 38.9675 52.02125 25.685 52 12 C6.13 12 -39.74 12 -87 12 C-85.84055399 20.28503416 -85.84055399 20.28503416 -82.125 26.3125 C-81.5990625 26.94800781 -81.073125 27.58351562 -80.53125 28.23828125 C-80.0259375 28.81964844 -79.520625 29.40101563 -79 30 C-78.21625 30.99 -77.4325 31.98 -76.625 33 C-76.08875 33.66 -75.5525 34.32 -75 35 C-81.27079251 32.44523268 -84.64027593 27.30810981 -88.08203125 21.76953125 C-89 19 -89 19 -89 9 C-59.3 9 -29.6 9 1 9 C0.505 4.545 0.505 4.545 0 0 Z " fill="#DF4229" transform="translate(186,128)"/>
<path d="M0 0 C0.33 0 0.66 0 1 0 C3.71482287 19.8740839 3.16367959 40.11526472 3.16725707 60.13415265 C3.16797694 62.40473939 3.17012806 64.6753204 3.17275429 66.94590569 C3.181926 74.88801319 3.18609776 82.83010417 3.18530273 90.7722168 C3.18469748 98.15027404 3.19535709 105.52825925 3.2110464 112.90629822 C3.22411385 119.28044366 3.22948728 125.6545654 3.22884732 132.02872413 C3.228593 135.81969297 3.23141095 139.61059686 3.24202538 143.4015522 C3.25169807 146.95011424 3.2517914 150.49854881 3.24450874 154.04711533 C3.24296546 155.96513741 3.25130688 157.88315949 3.25994873 159.80116272 C3.25575424 160.94580994 3.25155975 162.09045715 3.24723816 163.26979065 C3.24778293 164.26164147 3.24832769 165.2534923 3.24888897 166.27539921 C2.98334132 169.18236351 2.21388371 171.35922241 1 174 C0.67 174 0.34 174 0 174 C0 116.58 0 59.16 0 0 Z " fill="#CD6F63" transform="translate(240,51)"/>
<path d="M0 0 C0.99 0 1.98 0 3 0 C3 23.76 3 47.52 3 72 C12.61189453 71.75443359 12.61189453 71.75443359 22.41796875 71.50390625 C46.34761238 70.9429665 70.26612377 70.87855853 94.20117188 70.93133545 C99.51366751 70.94186123 104.82616866 70.94619332 110.13867188 70.95117188 C120.42579464 70.96166254 130.71289462 70.97855425 141 71 C141 69.68 141 68.36 141 67 C141.66 67 142.32 67 143 67 C142.67 65.02 142.34 63.04 142 61 C141.34 61 140.68 61 140 61 C140.33 59.68 140.66 58.36 141 57 C143.76015618 60.48019692 144.27044554 63.38829704 144.59765625 67.69921875 C144.67636963 68.69139404 144.75508301 69.68356934 144.83618164 70.70581055 C144.8902417 71.46289307 144.94430176 72.21997559 145 73 C126.24200502 73.02332788 107.48401297 73.04097863 88.72600651 73.05181217 C80.0169584 73.05697537 71.30791929 73.06401851 62.59887695 73.07543945 C55.01086259 73.08538558 47.42285474 73.09185326 39.83483404 73.09408849 C35.81452881 73.09539572 31.79424222 73.09848234 27.77394295 73.10573006 C23.99426016 73.11248915 20.2146038 73.11461719 16.43491554 73.11310768 C15.04369717 73.11338406 13.65247797 73.11538985 12.2612648 73.11920547 C10.36986674 73.12414091 8.47845468 73.12239798 6.58705139 73.12025452 C4.9955758 73.12163721 4.9955758 73.12163721 3.3719492 73.12304783 C1 73 1 73 0 72 C-0.09436529 69.76070114 -0.11742327 67.5183825 -0.11352539 65.27709961 C-0.11367142 64.5746965 -0.11381744 63.8722934 -0.1139679 63.14860535 C-0.11326872 60.81648722 -0.10547617 58.484448 -0.09765625 56.15234375 C-0.09579208 54.53951562 -0.09436818 52.92668693 -0.09336853 51.31385803 C-0.08954323 47.06084643 -0.07971285 42.80786876 -0.06866455 38.55487061 C-0.05845069 34.2182257 -0.05387096 29.88157533 -0.04882812 25.54492188 C-0.03809059 17.02993231 -0.02101403 8.51497037 0 0 Z " fill="#0A243C" transform="translate(42,64)"/>
<path d="M0 0 C0.33 0 0.66 0 1 0 C3.70882708 19.79079019 3.12925675 39.94874114 3.0625 59.875 C3.05746928 62.52083248 3.05290919 65.16666589 3.04882812 67.8125 C3.03796013 74.20835428 3.02134944 80.60417255 3 87 C2.01 87 1.02 87 0 87 C0 58.29 0 29.58 0 0 Z " fill="#E5B46E" transform="translate(240,51)"/>
<path d="M0 0 C2 3 2 3 2 10 C-27.7 10 -57.4 10 -88 10 C-85.23850088 21.37653275 -85.23850088 21.37653275 -79 30 C-78.21625 30.99 -77.4325 31.98 -76.625 33 C-76.08875 33.66 -75.5525 34.32 -75 35 C-81.27079251 32.44523268 -84.64027593 27.30810981 -88.08203125 21.76953125 C-89 19 -89 19 -89 9 C-59.3 9 -29.6 9 1 9 C0.505 4.545 0.505 4.545 0 0 Z " fill="#713534" transform="translate(186,128)"/>
<path d="M0 0 C5.44107986 5.09004245 4.21600316 7.37603473 5 16 C-24.7 16 -54.4 16 -85 16 C-85 15.67 -85 15.34 -85 15 C-56.62 14.67 -28.24 14.34 1 14 C1 12.68 1 11.36 1 10 C1.66 10 2.32 10 3 10 C2.505 7.03 2.505 7.03 2 4 C1.34 4 0.68 4 0 4 C0 2.68 0 1.36 0 0 Z " fill="#0B1B33" transform="translate(182,121)"/>
<path d="M0 0 C0.33 1.32 0.66 2.64 1 4 C25.75 4.495 25.75 4.495 51 5 C51 5.66 51 6.32 51 7 C34.17 7 17.34 7 0 7 C0 4.69 0 2.38 0 0 Z " fill="#F7902C" transform="translate(189,131)"/>
<path d="M0 0 C3.67247955 3.67247955 4.10237149 9.16032115 4.20254517 14.18896484 C4.19078613 15.69641008 4.1677975 17.20379771 4.13525391 18.7109375 C4.12579239 19.54115921 4.11633087 20.37138092 4.10658264 21.22676086 C4.07317893 23.9430782 4.02499078 26.65891261 3.9765625 29.375 C3.95036704 31.26927465 3.92510234 33.16356239 3.90072632 35.05786133 C3.83435295 40.02277289 3.75540101 44.98740644 3.67376709 49.9520874 C3.59257497 55.02654419 3.52336457 60.10116313 3.453125 65.17578125 C3.31376404 75.11738177 3.16110487 85.05872972 3 95 C2.67 95 2.34 95 2 95 C2 66.29 2 37.58 2 8 C1.34 8 0.68 8 0 8 C0 5.36 0 2.72 0 0 Z " fill="#F09E24" transform="translate(237,41)"/>
<path d="M0 0 C6.46557599 1.326272 10.40443929 5.57155059 15 10 C15.69351563 10.64710937 16.38703125 11.29421875 17.1015625 11.9609375 C21.34101093 16.51441915 24.32368886 22.33685983 24.3125 28.625 C24.209375 29.73875 24.10625 30.8525 24 32 C23.67 32 23.34 32 23 32 C22.690625 30.0509375 22.690625 30.0509375 22.375 28.0625 C19.81302429 16.65006274 10.67529659 8.67279113 1.50390625 2.1640625 C1.00761719 1.77992187 0.51132813 1.39578125 0 1 C0 0.67 0 0.34 0 0 Z " fill="#D7A145" transform="translate(165,105)"/>
<path d="M0 0 C6.6 0 13.2 0 20 0 C16.65332987 3.34667013 15.36959462 3.89464657 10.75 4.25 C6.41646095 3.9610974 3.86543256 2.89327309 0 1 C0 0.67 0 0.34 0 0 Z " fill="#D1583F" transform="translate(213,240)"/>
<path d="M0 0 C0.66 0.33 1.32 0.66 2 1 C0.9024777 3.99324263 0.32317108 4.84610901 -2.625 6.25 C-3.800625 6.62125 -3.800625 6.62125 -5 7 C-5 7.66 -5 8.32 -5 9 C-5.99 9 -6.98 9 -8 9 C-8.33 9.99 -8.66 10.98 -9 12 C-11.475 11.01 -11.475 11.01 -14 10 C-13.67 9.34 -13.34 8.68 -13 8 C-12.12601563 7.80083984 -12.12601563 7.80083984 -11.234375 7.59765625 C-8.31409953 6.81653362 -6.59109712 5.33103444 -4.25 3.4375 C-3.45078125 2.79683594 -2.6515625 2.15617187 -1.828125 1.49609375 C-1.22484375 1.00238281 -0.6215625 0.50867188 0 0 Z " fill="#DEA45A" transform="translate(154,78)"/>
<path d="M0 0 C0.33 0 0.66 0 1 0 C1.14695312 0.7734375 1.29390625 1.546875 1.4453125 2.34375 C3.01122462 9.61534192 5.09002208 14.44903279 10 20 C10.78375 20.99 11.5675 21.98 12.375 23 C12.91125 23.66 13.4475 24.32 14 25 C7.70310205 22.43459713 4.05785287 17.22768737 0.9375 11.42578125 C-0.58283059 7.49192585 -0.33121718 4.17333644 0 0 Z " fill="#86665B" transform="translate(97,138)"/>
<path d="M0 0 C1.98 0.66 3.96 1.32 6 2 C6 2.66 6 3.32 6 4 C6.72574219 4.2578125 7.45148438 4.515625 8.19921875 4.78125 C11.12047667 6.05242499 13.30872649 7.54016402 15.8125 9.5 C16.60269531 10.1084375 17.39289063 10.716875 18.20703125 11.34375 C18.79871094 11.8903125 19.39039063 12.436875 20 13 C20 13.66 20 14.32 20 15 C17.12952515 13.65052579 14.64736525 12.11392802 12.109375 10.21484375 C11.40039062 9.68439453 10.69140625 9.15394531 9.9609375 8.60742188 C9.23132813 8.05634766 8.50171875 7.50527344 7.75 6.9375 C7.00492188 6.38255859 6.25984375 5.82761719 5.4921875 5.25585938 C4.78835937 4.72669922 4.08453125 4.19753906 3.359375 3.65234375 C2.71452148 3.16757568 2.06966797 2.68280762 1.40527344 2.18334961 C0.9415332 1.79284424 0.47779297 1.40233887 0 1 C0 0.67 0 0.34 0 0 Z " fill="#CD9D4C" transform="translate(145,90)"/>
<path d="M0 0 C4.81492938 0.12278508 7.98625172 2.02832586 11.3125 5.4375 C12.75 8.25 12.75 8.25 13.3125 10.4375 C11.9925 9.7775 10.6725 9.1175 9.3125 8.4375 C9.3125 7.4475 9.3125 6.4575 9.3125 5.4375 C8.3225 5.4375 7.3325 5.4375 6.3125 5.4375 C5.9825 4.7775 5.6525 4.1175 5.3125 3.4375 C2.72644668 2.9691735 2.72644668 2.9691735 -0.25 2.8125 C-1.76787109 2.70035156 -1.76787109 2.70035156 -3.31640625 2.5859375 C-4.49009766 2.51246094 -4.49009766 2.51246094 -5.6875 2.4375 C-3.6875 0.4375 -3.6875 0.4375 0 0 Z " fill="#EEC065" transform="translate(223.6875,30.5625)"/>
<path d="M0 0 C4.1128978 0.12463327 5.88831778 1.6587312 8.625 4.5 C9.19476563 5.1290625 9.76453125 5.758125 10.3515625 6.40625 C12.01637109 8.24549337 12.01637109 8.24549337 15 9 C14.67 9.66 14.34 10.32 14 11 C12.68 11 11.36 11 10 11 C8.97388051 9.34928604 7.97691857 7.68029994 7 6 C5.35857037 4.9590934 3.69287785 3.95495674 2 3 C1.34 2.01 0.68 1.02 0 0 Z " fill="#856D5F" transform="translate(130,178)"/>
<path d="M0 0 C-1.15261267 3.45783802 -1.80531758 3.80618466 -4.8125 5.625 C-5.49957031 6.05039063 -6.18664062 6.47578125 -6.89453125 6.9140625 C-8.937849 7.96794438 -10.75485743 8.54592622 -13 9 C-12 6 -12 6 -10 4.9375 C-9.34 4.628125 -8.68 4.31875 -8 4 C-7.67 3.34 -7.34 2.68 -7 2 C-2.66666667 0 -2.66666667 0 0 0 Z " fill="#229793" transform="translate(81,233)"/>
<path d="M0 0 C0.66 0.33 1.32 0.66 2 1 C1.5625 3.25 1.5625 3.25 0 6 C-3.8255295 8.30267448 -7.50810806 10 -12 10 C-8.04 6.7 -4.08 3.4 0 0 Z " fill="#E9B053" transform="translate(180,58)"/>
<path d="M0 0 C1.32 0 2.64 0 4 0 C4.474375 0.66 4.94875 1.32 5.4375 2 C6.2109375 2.99 6.2109375 2.99 7 4 C9.62625139 4.33425735 9.62625139 4.33425735 12 4 C12.66 6.31 13.32 8.62 14 11 C10.50004453 9.43810398 7.72827143 7.33666309 4.75 4.9375 C3.85796875 4.22464844 2.9659375 3.51179687 2.046875 2.77734375 C1.37140625 2.19082031 0.6959375 1.60429687 0 1 C0 0.67 0 0.34 0 0 Z " fill="#B15444" transform="translate(113,164)"/>
<path d="M0 0 C3.12270026 1.41115314 5.49653681 3.110624 8.0625 5.375 C8.73410156 5.96023437 9.40570313 6.54546875 10.09765625 7.1484375 C11.97541411 8.9760704 13.48949607 10.86364865 15 13 C14.01 13 13.02 13 12 13 C10.80331655 11.5706281 9.6128002 10.13502136 8.47265625 8.66015625 C6.86185255 6.84426349 5.19434645 5.60816881 3.1875 4.25 C2.135625 3.5075 1.08375 2.765 0 2 C0 1.34 0 0.68 0 0 Z " fill="#21271E" transform="translate(167,108)"/>
<path d="M0 0 C3.2826932 1.49076434 5.93077441 3.38620321 8.75 5.625 C9.94882813 6.57246094 9.94882813 6.57246094 11.171875 7.5390625 C11.77515625 8.02117187 12.3784375 8.50328125 13 9 C10.37886292 9 8.49064888 8.68707555 6 8 C6 7.34 6 6.68 6 6 C5.01 6 4.02 6 3 6 C0 2.66666667 0 2.66666667 0 0 Z " fill="#202823" transform="translate(154,98)"/>
<path d="M0 0 C1.32 0 2.64 0 4 0 C4 0.66 4 1.32 4 2 C5.1446875 2.37125 5.1446875 2.37125 6.3125 2.75 C9.2364045 4.10995558 10.30004356 5.31585826 12 8 C11.67 8.66 11.34 9.32 11 10 C9.16375669 8.52444734 7.3310715 7.04446569 5.5 5.5625 C4.4790625 4.73878906 3.458125 3.91507813 2.40625 3.06640625 C1.6121875 2.38449219 0.818125 1.70257813 0 1 C0 0.67 0 0.34 0 0 Z " fill="#D5523F" transform="translate(195,227)"/>
<path d="M0 0 C0.66 0.33 1.32 0.66 2 1 C1.505 1.78375 1.01 2.5675 0.5 3.375 C-1.16537965 5.78552327 -1.16537965 5.78552327 -1 8 C-4 8 -7 8 -10 8 C-6.7 5.36 -3.4 2.72 0 0 Z " fill="#EBAE54" transform="translate(166,69)"/>
<path d="M0 0 C2.90252781 2.90252781 3.52491759 6.03697076 4 10 C3.87544492 14.35942765 3.48873689 18.66741349 3 23 C2.67 23 2.34 23 2 23 C2 18.05 2 13.1 2 8 C1.34 8 0.68 8 0 8 C0 5.36 0 2.72 0 0 Z " fill="#E8A33A" transform="translate(237,41)"/>
<path d="M0 0 C1.24643378 3.49960254 0.78889218 5.29073361 -0.75 8.625 C-1.09546875 9.40101563 -1.4409375 10.17703125 -1.796875 10.9765625 C-3 13 -3 13 -6 15 C-5.67 13.35 -5.34 11.7 -5 10 C-4.01 9.67 -3.02 9.34 -2 9 C-2 7.02 -2 5.04 -2 3 C-1.34 3 -0.68 3 0 3 C0 2.01 0 1.02 0 0 Z " fill="#D35D49" transform="translate(239,225)"/>
<path d="M0 0 C2.35800504 2.28431738 3.88720897 4.0081024 4.265625 7.3359375 C4.251535 9.56920205 4.17460201 11.77382441 4 14 C3.01 14 2.02 14 1 14 C1 12.68 1 11.36 1 10 C1.66 10 2.32 10 3 10 C2.67 8.02 2.34 6.04 2 4 C1.34 4 0.68 4 0 4 C0 2.68 0 1.36 0 0 Z " fill="#1C2E31" transform="translate(182,121)"/>
<path d="M0 0 C3.66060821 0.58536753 5.54535164 2.083239 8.25 4.5625 C8.95640625 5.20316406 9.6628125 5.84382812 10.390625 6.50390625 C10.92171875 6.99761719 11.4528125 7.49132812 12 8 C11.01 8.495 11.01 8.495 10 9 C9.01 8.67 8.02 8.34 7 8 C6.690625 7.34 6.38125 6.68 6.0625 6 C5.711875 5.34 5.36125 4.68 5 4 C3.67405895 3.63837971 2.34061543 3.30271961 1 3 C0.67 2.01 0.34 1.02 0 0 Z " fill="#37867B" transform="translate(109,163)"/>
<path d="M0 0 C2.31 0.66 4.62 1.32 7 2 C7 2.99 7 3.98 7 5 C8.32 5.66 9.64 6.32 11 7 C7.41584854 7 6.58796261 6.21108216 3.8125 4.0625 C3.09707031 3.51722656 2.38164062 2.97195312 1.64453125 2.41015625 C1.10183594 1.94480469 0.55914062 1.47945312 0 1 C0 0.67 0 0.34 0 0 Z " fill="#D84D43" transform="translate(178,214)"/>
<path d="M0 0 C1.48285242 0.95262034 2.96118201 1.91228405 4.4375 2.875 C5.67306641 3.67550781 5.67306641 3.67550781 6.93359375 4.4921875 C9 6 9 6 10 8 C6.62537285 7.45276317 4.91765 6.9451 2 5 C2 4.34 2 3.68 2 3 C1.34 3 0.68 3 0 3 C0 2.01 0 1.02 0 0 Z " fill="#2F4354" transform="translate(115,67)"/>
<path d="M0 0 C2.30142435 1.78174788 3.80034391 3.16304165 4.48828125 6.046875 C4.72323102 8.0246611 4.86751458 10.01271872 5 12 C1.94063363 8.24532309 0 4.91886939 0 0 Z " fill="#3EA8A1" transform="translate(45,227)"/>
<path d="M0 0 C4.83256305 0.41421969 6.82679218 2.46413986 10 6 C6.62972148 6 5.93297304 5.50175992 3.3125 3.5625 C2.68988281 3.11003906 2.06726563 2.65757812 1.42578125 2.19140625 C0.95527344 1.79824219 0.48476562 1.40507812 0 1 C0 0.67 0 0.34 0 0 Z " fill="#CB523D" transform="translate(145,189)"/>
<path d="M0 0 C1.32 0.33 2.64 0.66 4 1 C-0.455 3.97 -0.455 3.97 -5 7 C-5.33 6.34 -5.66 5.68 -6 5 C-5.67 4.34 -5.34 3.68 -5 3 C-3.68 3 -2.36 3 -1 3 C-0.67 2.01 -0.34 1.02 0 0 Z " fill="#249B9A" transform="translate(98,218)"/>
<path d="M0 0 C0.66 0.33 1.32 0.66 2 1 C1.01 1.66 0.02 2.32 -1 3 C-1.33 3.99 -1.66 4.98 -2 6 C-5.5625 7.1875 -5.5625 7.1875 -9 8 C-6.14723863 5.06799526 -3.34920216 2.35684596 0 0 Z " fill="#E9BC5C" transform="translate(208,37)"/>
<path d="M0 0 C0.66 0.33 1.32 0.66 2 1 C2.22036864 4.85645121 1.60355101 7.49223216 0 11 C-0.33 11 -0.66 11 -1 11 C-1.02688151 9.35425434 -1.04634123 7.70838587 -1.0625 6.0625 C-1.07410156 5.14597656 -1.08570313 4.22945312 -1.09765625 3.28515625 C-1 1 -1 1 0 0 Z " fill="#E8847B" transform="translate(241,214)"/>
<path d="M0 0 C1.9375 0.6875 1.9375 0.6875 4 2 C4.75 4.625 4.75 4.625 5 7 C3.02 7.99 3.02 7.99 1 9 C1.50603992 6.83125748 1.99983813 5.00032373 3 3 C2.01 3 1.02 3 0 3 C0 2.01 0 1.02 0 0 Z " fill="#1E968F" transform="translate(135,183)"/>
<path d="M0 0 C0.66 0.33 1.32 0.66 2 1 C0.02 3.31 -1.96 5.62 -4 8 C-4.99 7.34 -5.98 6.68 -7 6 C-4.69 4.02 -2.38 2.04 0 0 Z " fill="#EBB55A" transform="translate(197,45)"/>
<path d="M0 0 C2.97 0.33 5.94 0.66 9 1 C9 1.66 9 2.32 9 3 C6.36 3 3.72 3 1 3 C0.67 2.01 0.34 1.02 0 0 Z " fill="#1B8888" transform="translate(55,241)"/>
<path d="M0 0 C1.65 0.33 3.3 0.66 5 1 C0.375 5.875 0.375 5.875 -3 7 C-3 5.35 -3 3.7 -3 2 C-1.68 2.33 -0.36 2.66 1 3 C0.67 2.01 0.34 1.02 0 0 Z " fill="#28999B" transform="translate(88,224)"/>
<path d="M0 0 C6.875 3.75 6.875 3.75 8 6 C2.46153846 5.38461538 2.46153846 5.38461538 0.125 3.4375 C-0.24625 2.963125 -0.6175 2.48875 -1 2 C-0.67 1.34 -0.34 0.68 0 0 Z " fill="#3F5464" transform="translate(103,58)"/>
<path d="M0 0 C3.77545388 1.09068668 6.47043472 1.9083091 9 5 C5.625 4.75 5.625 4.75 2 4 C0.5625 1.9375 0.5625 1.9375 0 0 Z " fill="#293C50" transform="translate(69,34)"/>
<path d="M0 0 C0.33 1.32 0.66 2.64 1 4 C-2.465 5.485 -2.465 5.485 -6 7 C-4.60667426 3.63279613 -3.0210714 2.0140476 0 0 Z " fill="#344353" transform="translate(55,32)"/>
<path d="M0 0 C0.99 0.33 1.98 0.66 3 1 C0.69 2.65 -1.62 4.3 -4 6 C-4.33 5.01 -4.66 4.02 -5 3 C-2.6875 1.4375 -2.6875 1.4375 0 0 Z " fill="#2E9D9A" transform="translate(108,211)"/>
<path d="M0 0 C0.66 0.33 1.32 0.66 2 1 C0.68 2.65 -0.64 4.3 -2 6 C-3.32 5.67 -4.64 5.34 -6 5 C-4.02 3.35 -2.04 1.7 0 0 Z " fill="#E9B46C" transform="translate(188,52)"/>
<path d="M0 0 C4.24822374 0.47202486 6.19989709 2.96655518 9 6 C8.236875 5.690625 7.47375 5.38125 6.6875 5.0625 C4.81210323 4.32106407 2.91315348 3.63771783 1 3 C0.67 2.01 0.34 1.02 0 0 Z " fill="#18211E" transform="translate(141,89)"/>
</svg>
