<?xml version="1.0" encoding="UTF-8"?>
<svg version="1.1" xmlns="http://www.w3.org/2000/svg" width="307" height="83">
<path d="M0 0 C2.14576637 -0.02685938 4.29162645 -0.04633088 6.4375 -0.0625 C7.63246094 -0.07410156 8.82742187 -0.08570313 10.05859375 -0.09765625 C13 0 13 0 14 1 C14.15686249 2.55948542 14.25076639 4.12542668 14.31640625 5.69140625 C14.37924805 7.10776367 14.37924805 7.10776367 14.44335938 8.55273438 C14.48267578 9.54595703 14.52199219 10.53917969 14.5625 11.5625 C14.60568359 12.55958984 14.64886719 13.55667969 14.69335938 14.58398438 C14.79980298 17.0558415 14.90181928 19.5278031 15 22 C15.60432861 21.67999023 16.20865723 21.35998047 16.83129883 21.03027344 C22.99945454 18.10000021 31.46177344 18.38598774 37.96484375 20.14453125 C42.90960236 22.22303823 46.11043165 25.54703837 48.875 30.0625 C52.58060676 39.73825099 52.90560411 54.07826218 49.5 63.875 C47.18364283 68.54907785 43.57225211 71.57992125 39 74 C34.43780548 75.37041142 29.91364309 75.2225822 25.1875 75.25 C24.31029297 75.270625 23.43308594 75.29125 22.52929688 75.3125 C15.51011436 75.3544996 10.7058303 74.33685344 5.25 69.625 C0.45103872 64.02621184 -1.12347902 59.72304614 -1.12939453 52.43701172 C-1.13254669 51.32260712 -1.13569885 50.20820251 -1.13894653 49.06002808 C-1.1369223 47.86201569 -1.13489807 46.6640033 -1.1328125 45.4296875 C-1.13376923 44.19711212 -1.13472595 42.96453674 -1.13571167 41.6946106 C-1.13656617 38.4238712 -1.1325431 35.15317937 -1.12695312 31.88244629 C-1.12499896 29.87392674 -1.12695005 27.86545076 -1.13037109 25.85693359 C-1.13652778 22.0061641 -1.13580612 18.15545963 -1.1328125 14.3046875 C-1.13483673 13.10262665 -1.13686096 11.9005658 -1.13894653 10.66207886 C-1.13579437 9.55397858 -1.13264221 8.4458783 -1.12939453 7.30419922 C-1.12859894 6.32587128 -1.12780334 5.34754333 -1.12698364 4.33956909 C-1 2 -1 2 0 0 Z M16.125 35.3984375 C13.63789019 38.93911466 13.81649024 42.12673676 13.8125 46.3125 C13.79832031 47.62863281 13.78414062 48.94476563 13.76953125 50.30078125 C13.98557196 53.76841774 14.34197638 55.97589712 16 59 C19.43500699 61.29000466 20.88728019 61.29748064 24.9375 61.3125 C26.49791016 61.33763672 26.49791016 61.33763672 28.08984375 61.36328125 C31.42268015 60.9472359 32.60084241 60.30444567 35 58 C35.59658573 55.74247366 35.59658573 55.74247366 35.49609375 53.21875 C35.49673828 52.29449219 35.49738281 51.37023437 35.49804688 50.41796875 C35.46807617 48.97357422 35.46807617 48.97357422 35.4375 47.5 C35.44458984 46.53707031 35.45167969 45.57414062 35.45898438 44.58203125 C35.6436638 39.59551814 35.6436638 39.59551814 33.67602539 35.22607422 C30.94485537 33.22812289 28.31345191 33.60429093 25 33.625 C23.7625 33.61726563 22.525 33.60953125 21.25 33.6015625 C18.05050289 33.72117282 18.05050289 33.72117282 16.125 35.3984375 Z " fill="#FFFFFF" transform="translate(123,5)"/>
<path d="M0 0 C0.9796875 0.00515625 1.959375 0.0103125 2.96875 0.015625 C3.9484375 0.01046875 4.928125 0.0053125 5.9375 0 C8.46875 0.265625 8.46875 0.265625 10.46875 2.265625 C10.78759766 4.42041016 10.78759766 4.42041016 10.8828125 7.0546875 C10.92148437 7.99570313 10.96015625 8.93671875 11 9.90625 C11.0309375 10.89109375 11.061875 11.8759375 11.09375 12.890625 C11.13242187 13.88320313 11.17109375 14.87578125 11.2109375 15.8984375 C11.3053814 18.35397885 11.39094875 20.8095091 11.46875 23.265625 C12.53351562 22.78738281 13.59828125 22.30914063 14.6953125 21.81640625 C21.93945551 18.72243969 29.03128581 18.60318646 36.46875 21.265625 C41.02580595 23.94041871 42.97532548 27.29851439 44.46875 32.265625 C44.86562941 35.38275525 44.86688646 38.45476124 44.83203125 41.59375 C44.83277901 42.89998322 44.83277901 42.89998322 44.83354187 44.23260498 C44.83121353 46.06134337 44.8215588 47.89008572 44.80493164 49.71875 C44.78120345 52.52112284 44.78439683 55.32255127 44.79101562 58.125 C44.78544257 59.90625568 44.77833505 61.68750736 44.76953125 63.46875 C44.77089836 64.7250119 44.77089836 64.7250119 44.77229309 66.00665283 C44.72425578 69.92749179 44.69148947 71.9315158 42.46875 75.265625 C40.19140625 75.6640625 40.19140625 75.6640625 37.53125 75.640625 C36.21833984 75.65222656 36.21833984 75.65222656 34.87890625 75.6640625 C32.46875 75.265625 32.46875 75.265625 30.84350586 74.21728516 C28.74387091 71.23655673 29.04772283 68.1564083 29.0625 64.640625 C29.05166382 63.89731934 29.04082764 63.15401367 29.02966309 62.38818359 C28.98378897 59.21002504 28.97231789 56.03194603 28.95751953 52.85351562 C28.94183534 50.53225544 28.90883719 48.21167997 28.875 45.890625 C28.87802124 45.17181152 28.88104248 44.45299805 28.88415527 43.71240234 C28.83067911 39.7611363 28.83067911 39.7611363 27.07592773 36.31616211 C23.85900757 34.21341147 20.13666836 34.6620435 16.46875 35.265625 C13.17605344 37.57051259 12.17955954 39.41244152 11.46875 43.265625 C11.35527523 45.47346467 11.29085717 47.68402439 11.2578125 49.89453125 C11.22945312 51.17650391 11.20109375 52.45847656 11.171875 53.77929688 C11.13052452 55.80916232 11.09361239 57.83877592 11.06738281 59.86889648 C11.03980101 61.83600223 10.99282272 63.80280592 10.9453125 65.76953125 C10.92549316 66.94330322 10.90567383 68.1170752 10.88525391 69.32641602 C10.46875 72.265625 10.46875 72.265625 9.07373047 74.14892578 C6.94440093 75.63045199 5.54401876 75.63392249 2.96875 75.578125 C2.1953125 75.57425781 1.421875 75.57039063 0.625 75.56640625 C-1.53125 75.265625 -1.53125 75.265625 -4.53125 73.265625 C-4.9054718 70.34313965 -4.9054718 70.34313965 -4.90356445 66.55273438 C-4.90904045 65.51835991 -4.90904045 65.51835991 -4.91462708 64.46308899 C-4.92274879 62.17826896 -4.90910981 59.89415458 -4.89453125 57.609375 C-4.89401283 56.02518718 -4.89452982 54.44099871 -4.89604187 52.85681152 C-4.89595207 49.53448907 -4.88550794 46.21240892 -4.86743164 42.89013672 C-4.84474407 38.62599259 -4.84419952 34.3622027 -4.85094929 30.09801483 C-4.85428667 26.82611936 -4.84766358 23.55430503 -4.83782005 20.28242493 C-4.83396376 18.70990931 -4.83282161 17.13738466 -4.8344059 15.56486511 C-4.8347757 13.36923954 -4.82218085 11.17407249 -4.8059082 8.97851562 C-4.80130081 7.72768188 -4.79669342 6.47684814 -4.79194641 5.18811035 C-4.45770454 1.44115817 -3.79872922 0.39863208 0 0 Z " fill="#FFFFFF" transform="translate(9.53125,2.734375)"/>
<path d="M0 0 C5.74408721 5.36695017 7.52502401 11.95292479 7.859375 19.5703125 C7.546875 23.4453125 7.546875 23.4453125 4.546875 29.4453125 C-6.013125 29.4453125 -16.573125 29.4453125 -27.453125 29.4453125 C-26.463125 31.4253125 -25.473125 33.4053125 -24.453125 35.4453125 C-21.21560822 36.52448476 -18.87560729 36.55956851 -15.47265625 36.54296875 C-13.72758789 36.53813477 -13.72758789 36.53813477 -11.94726562 36.53320312 C-10.12485352 36.52063477 -10.12485352 36.52063477 -8.265625 36.5078125 C-6.42581055 36.50104492 -6.42581055 36.50104492 -4.54882812 36.49414062 C-1.51687832 36.48234315 1.51497406 36.46588171 4.546875 36.4453125 C6.14072643 39.63301535 5.93156875 42.97619921 5.546875 46.4453125 C4.23909377 48.9954859 3.51852135 50.12210486 0.78833008 51.03027344 C-3.99764709 51.91646897 -8.91353997 51.67311886 -13.765625 51.6953125 C-14.88130859 51.7159375 -15.99699219 51.7365625 -17.14648438 51.7578125 C-25.90029483 51.79932435 -31.88162412 50.65173 -38.453125 44.4453125 C-42.95985521 38.00712648 -42.69361418 31.87655726 -42.765625 24.2578125 C-42.79462891 23.25427734 -42.82363281 22.25074219 -42.85351562 21.21679688 C-42.92281431 13.02355997 -41.3934338 6.82666762 -35.953125 0.5703125 C-26.34470332 -6.34775111 -9.5583463 -7.14833591 0 0 Z M-26.453125 11.4453125 C-26.783125 13.4253125 -27.113125 15.4053125 -27.453125 17.4453125 C-20.853125 17.4453125 -14.253125 17.4453125 -7.453125 17.4453125 C-7.783125 15.4653125 -8.113125 13.4853125 -8.453125 11.4453125 C-11.79360603 9.21832515 -12.98598081 9.1741204 -16.890625 9.1953125 C-17.83808594 9.19015625 -18.78554687 9.185 -19.76171875 9.1796875 C-22.6144486 9.46123413 -24.20066268 9.6597615 -26.453125 11.4453125 Z " fill="#FFFFFF" transform="translate(264.453125,28.5546875)"/>
<path d="M0 0 C1.20161511 3.60484534 1.23017136 6.97289857 1.31640625 10.73046875 C1.33718735 11.48088943 1.35796844 12.23131012 1.37937927 13.00447083 C1.44469926 15.39872184 1.50367792 17.79308139 1.5625 20.1875 C1.60570193 21.81186013 1.64931676 23.43620933 1.69335938 25.06054688 C1.80036263 29.04025371 1.90167937 33.02006958 2 37 C4.70562743 38.35281371 6.91893655 38.20609362 9.9375 38.25 C10.99839844 38.27578125 12.05929688 38.3015625 13.15234375 38.328125 C15.91524483 38.21532807 15.91524483 38.21532807 17.64599609 36.97631836 C19.75132248 33.9033618 19.48103128 30.65311268 19.51171875 27.05078125 C19.52966995 26.27816452 19.54762115 25.50554779 19.56611633 24.70951843 C19.62026104 22.243901 19.65412731 19.77847757 19.6875 17.3125 C19.72066952 15.63994694 19.75515885 13.96741949 19.79101562 12.29492188 C19.87598949 8.1967545 19.9427802 4.09864506 20 0 C23.83934743 -2.11332501 26.59051846 -2.39370371 31 -2 C33.18554688 -1.00073242 33.18554688 -1.00073242 35 1 C35.40580173 3.90243948 35.56098635 6.4206159 35.53125 9.32421875 C35.5350769 10.14445023 35.53890381 10.9646817 35.54284668 11.80976868 C35.54556894 13.54726384 35.53818568 15.28479977 35.52148438 17.0222168 C35.50021406 19.6609448 35.52120202 22.29690753 35.546875 24.93554688 C35.5442291 26.62761011 35.53909871 28.31967165 35.53125 30.01171875 C35.53934692 30.79222092 35.54744385 31.57272308 35.55578613 32.37687683 C35.44152002 39.17831178 33.4831434 44.58052695 28.5625 49.375 C22.62080398 53.14290479 17.57618522 53.36538565 10.6875 53.375 C9.77548828 53.39949219 8.86347656 53.42398438 7.92382812 53.44921875 C1.11344435 53.47851072 -4.31470485 52.24374449 -9.52416992 47.65844727 C-14.70269997 42.01943705 -15.30819629 35.32590974 -15.265625 27.984375 C-15.26753845 27.24672913 -15.2694519 26.50908325 -15.27142334 25.74908447 C-15.27277521 24.20283666 -15.2691491 22.65657711 -15.26074219 21.11035156 C-15.24996624 18.74258176 -15.26070241 16.37555999 -15.2734375 14.0078125 C-15.27211693 12.49999833 -15.26955665 10.99218462 -15.265625 9.484375 C-15.26967346 8.77810974 -15.27372192 8.07184448 -15.27789307 7.34417725 C-15.24271662 3.67335219 -15.09358214 2.14037321 -13 -1 C-10.9765625 -1.58203125 -10.9765625 -1.58203125 -8.625 -1.8125 C-7.85414062 -1.90144531 -7.08328125 -1.99039062 -6.2890625 -2.08203125 C-3.63672388 -1.98698157 -2.19321529 -1.4830773 0 0 Z " fill="#FFFFFF" transform="translate(78,27)"/>
<path d="M0 0 C2.20703125 1.12890625 2.20703125 1.12890625 4 3 C4.390625 5.91796875 4.390625 5.91796875 4.25 9.1875 C4.21390625 10.27417969 4.1778125 11.36085938 4.140625 12.48046875 C4.07101563 13.72763672 4.07101563 13.72763672 4 15 C5.13179687 14.97679687 6.26359375 14.95359375 7.4296875 14.9296875 C8.91145175 14.91093099 10.39322312 14.89273066 11.875 14.875 C12.62136719 14.85824219 13.36773437 14.84148438 14.13671875 14.82421875 C16.09194461 14.8066041 18.04742021 14.89679811 20 15 C22.41486943 17.41486943 22.2961925 18.12707789 22.3125 21.4375 C22.32925781 22.21996094 22.34601563 23.00242187 22.36328125 23.80859375 C22 26 22 26 20.9609375 27.8046875 C17.86818949 29.6899084 14.77182855 29.05248985 11.3125 28.6875 C10.61060547 28.62626953 9.90871094 28.56503906 9.18554688 28.50195312 C7.4557033 28.34897376 5.72761503 28.17637398 4 28 C4.13842295 31.95862931 4.28699006 35.91681327 4.4375 39.875 C4.47681641 41.00292969 4.51613281 42.13085938 4.55664062 43.29296875 C4.59853516 44.36933594 4.64042969 45.44570313 4.68359375 46.5546875 C4.72025146 47.54968262 4.75690918 48.54467773 4.79467773 49.56982422 C4.84959532 52.00779501 4.84959532 52.00779501 6 54 C7.13179687 53.96519531 8.26359375 53.93039063 9.4296875 53.89453125 C10.91144353 53.86639664 12.39321556 53.83909613 13.875 53.8125 C14.62136719 53.78736328 15.36773437 53.76222656 16.13671875 53.73632812 C18.3046875 53.70703125 18.3046875 53.70703125 22 54 C24.46751239 57.70126859 24.30721156 59.62223532 24 64 C23.1875 66.375 23.1875 66.375 22 68 C18.01605124 69.32798292 14.35945725 69.22332082 10.1875 69.25 C9.39279297 69.270625 8.59808594 69.29125 7.77929688 69.3125 C2.75493515 69.3457464 -0.64282027 68.77214783 -5 66 C-9.41457037 61.34017572 -11.25277856 56.99413848 -11.24291992 50.59887695 C-11.24753487 49.01747673 -11.24753487 49.01747673 -11.25224304 47.40412903 C-11.24505753 46.27689926 -11.23787201 45.14966949 -11.23046875 43.98828125 C-11.23001053 42.82370895 -11.22955231 41.65913666 -11.2290802 40.45927429 C-11.22606328 38.00238015 -11.21819378 35.54548783 -11.20581055 33.08862305 C-11.18751782 29.31617508 -11.18530119 25.54397213 -11.18554688 21.77148438 C-11.18063288 19.38541453 -11.17480508 16.99934636 -11.16796875 14.61328125 C-11.16685593 13.47997879 -11.1657431 12.34667633 -11.16459656 11.17903137 C-11.15821671 10.13422104 -11.15183685 9.08941071 -11.14526367 8.01293945 C-11.14145187 7.09092239 -11.13764008 6.16890533 -11.13371277 5.21894836 C-11 3 -11 3 -10 1 C-6.43528609 -0.18823797 -3.7441664 -0.26274852 0 0 Z " fill="#FFFFFF" transform="translate(194,11)"/>
<path d="M0 0 C1.95766281 -0.08082094 3.91626728 -0.13910778 5.875 -0.1875 C7.51082031 -0.23970703 7.51082031 -0.23970703 9.1796875 -0.29296875 C10.11039062 -0.19628906 11.04109375 -0.09960938 12 0 C14.2543598 3.3815397 14.26628727 4.60468871 14.31884766 8.57299805 C14.33871735 9.71395432 14.35858704 10.85491058 14.37905884 12.03044128 C14.39061005 13.26176285 14.40216125 14.49308441 14.4140625 15.76171875 C14.43342865 17.02264847 14.4527948 18.28357819 14.4727478 19.5827179 C14.52243737 22.93147581 14.56369435 26.28012319 14.60089111 29.62902832 C14.64093081 33.04770856 14.69202326 36.46622161 14.7421875 39.88476562 C14.83832561 46.58973631 14.92335146 53.29477974 15 60 C17.31 60.66 19.62 61.32 22 62 C22.02686553 63.97909398 22.04633375 65.95828971 22.0625 67.9375 C22.07410156 69.03964844 22.08570313 70.14179687 22.09765625 71.27734375 C22 74 22 74 21 75 C15.14728186 75.51075223 9.78867346 75.80181914 4.375 73.375 C-1.08000266 67.91999734 -2.11607302 61.79621787 -2.14526367 54.35522461 C-2.15164352 53.24735092 -2.15802338 52.13947723 -2.16459656 50.99803162 C-2.16570938 49.81145462 -2.1668222 48.62487762 -2.16796875 47.40234375 C-2.17129715 46.17592667 -2.17462555 44.94950958 -2.17805481 43.68592834 C-2.18311236 41.09620539 -2.1854635 38.50647593 -2.18530273 35.91674805 C-2.18749368 31.94894763 -2.20567434 27.98142328 -2.22460938 24.01367188 C-2.2275426 21.49739678 -2.22952787 18.98112037 -2.23046875 16.46484375 C-2.23765427 15.27624252 -2.24483978 14.0876413 -2.25224304 12.86302185 C-2.24916641 11.75830032 -2.24608978 10.6535788 -2.24291992 9.51538086 C-2.24434494 8.54451035 -2.24576996 7.57363983 -2.24723816 6.573349 C-1.99191036 3.9157999 -1.35477641 2.27711842 0 0 Z " fill="#FFFFFF" transform="translate(281,5)"/>
</svg>
